<svg width="80" height="80" viewBox="0 0 80 80" fill="none" xmlns="http://www.w3.org/2000/svg">
<g clip-path="url(#clip0_3074_1607)">
<path opacity="0.15" d="M10 15C10 12.7909 11.7909 11 14 11H66C68.2091 11 70 12.7909 70 15V27H10V15Z" fill="#415FB3"/>
<rect x="16" y="18" width="24" height="2" fill="#415FB3"/>
<mask id="mask0_3074_1607" style="mask-type:alpha" maskUnits="userSpaceOnUse" x="54" y="12" width="14" height="14">
<rect x="54" y="12" width="14" height="14" fill="#D9D9D9"/>
</mask>
<g mask="url(#mask0_3074_1607)">
<path d="M57.3833 19.5249V18.4749H64.6166V19.5249H57.3833Z" fill="#415FB3"/>
</g>
</g>
<path d="M10 27H70V49C70 51.2091 68.2091 53 66 53H14C11.7909 53 10 51.2091 10 49V27Z" fill="#415FB3" fill-opacity="0.15"/>
<g opacity="0.5">
<rect x="64" y="36" width="18" height="2" rx="1" transform="rotate(180 64 36)" fill="#415FB3"/>
<rect x="44" y="36" width="28" height="2" rx="1" transform="rotate(180 44 36)" fill="#415FB3"/>
</g>
<g opacity="0.5">
<rect x="64" y="41" width="28" height="2" rx="1" transform="rotate(180 64 41)" fill="#415FB3"/>
<rect x="34" y="41" width="18" height="2" rx="1" transform="rotate(180 34 41)" fill="#415FB3"/>
</g>
<g opacity="0.5">
<rect x="44" y="46" width="28" height="2" rx="1" transform="rotate(180 44 46)" fill="#415FB3"/>
</g>
<g clip-path="url(#clip1_3074_1607)">
<rect x="16" y="60" width="24" height="2" fill="#415FB3"/>
<mask id="mask1_3074_1607" style="mask-type:alpha" maskUnits="userSpaceOnUse" x="54" y="54" width="14" height="14">
<rect x="54" y="54" width="14" height="14" fill="#D9D9D9"/>
</mask>
<g mask="url(#mask1_3074_1607)">
<path d="M60.475 61.525H57.5V60.475H60.475V57.5H61.525V60.475H64.5V61.525H61.525V64.5H60.475V61.525Z" fill="#415FB3"/>
</g>
</g>
<defs>
<clipPath id="clip0_3074_1607">
<rect width="60" height="16" fill="white" transform="translate(10 11)"/>
</clipPath>
<clipPath id="clip1_3074_1607">
<rect x="10" y="53" width="60" height="16" rx="2" fill="white"/>
</clipPath>
</defs>
</svg>
