<svg width="32" height="32" viewBox="0 0 32 32" fill="none" xmlns="http://www.w3.org/2000/svg">
<g clip-path="url(#clip0_1024_4202)">
<rect width="32" height="32" rx="10" fill="#415FB3"/>
<mask id="mask0_1024_4202" style="mask-type:alpha" maskUnits="userSpaceOnUse" x="4" y="4" width="24" height="24">
<rect x="4" y="4" width="24" height="24" fill="#D9D9D9"/>
</mask>
<g mask="url(#mask0_1024_4202)">
<path d="M15.5558 21.4808C14.1289 21.3589 12.9296 20.7775 11.9577 19.7365C10.9859 18.6955 10.5 17.45 10.5 16C10.5 14.4722 11.0348 13.1736 12.1043 12.1042C13.1736 11.0347 14.4722 10.5 16 10.5C17.45 10.5 18.6955 10.9843 19.7365 11.953C20.7775 12.9215 21.3589 14.1193 21.4808 15.5463L19.8905 15.075C19.6743 14.175 19.2088 13.4375 18.4938 12.8625C17.7789 12.2875 16.9477 12 16 12C14.9 12 13.9583 12.3917 13.175 13.175C12.3917 13.9583 12 14.9 12 16C12 16.95 12.2891 17.7833 12.8672 18.5C13.4454 19.2167 14.1813 19.6833 15.075 19.9L15.5558 21.4808ZM16.7558 25.4595C16.6298 25.4865 16.5038 25.5 16.378 25.5H16C14.6858 25.5 13.4508 25.2507 12.295 24.752C11.1392 24.2533 10.1337 23.5766 9.27875 22.7218C8.42375 21.8669 7.74692 20.8617 7.24825 19.706C6.74942 18.5503 6.5 17.3156 6.5 16.0017C6.5 14.6877 6.74933 13.4527 7.248 12.2965C7.74667 11.1403 8.42342 10.1347 9.27825 9.2795C10.1331 8.42433 11.1383 7.74725 12.294 7.24825C13.4497 6.74942 14.6844 6.5 15.9983 6.5C17.3123 6.5 18.5473 6.74942 19.7035 7.24825C20.8597 7.74692 21.8653 8.42375 22.7205 9.27875C23.5757 10.1338 24.2528 11.1392 24.7518 12.295C25.2506 13.4508 25.5 14.6858 25.5 16V16.373C25.5 16.4973 25.4865 16.6217 25.4595 16.7463L24 16.3V16C24 13.7667 23.225 11.875 21.675 10.325C20.125 8.775 18.2333 8 16 8C13.7667 8 11.875 8.775 10.325 10.325C8.775 11.875 8 13.7667 8 16C8 18.2333 8.775 20.125 10.325 21.675C11.875 23.225 13.7667 24 16 24H16.3L16.7558 25.4595ZM24.1402 25.6443L19.6058 21.1L18.5193 24.3845L16 16L24.3845 18.5192L21.1 19.6058L25.6443 24.1402L24.1402 25.6443Z" fill="white"/>
</g>
</g>
<defs>
<clipPath id="clip0_1024_4202">
<rect width="32" height="32" fill="white"/>
</clipPath>
</defs>
</svg>
