<svg width="32" height="32" viewBox="0 0 32 32" fill="none" xmlns="http://www.w3.org/2000/svg">
<g clip-path="url(#clip0_1024_4286)">
<rect width="32" height="32" rx="10" fill="#415FB3"/>
<mask id="mask0_1024_4286" style="mask-type:alpha" maskUnits="userSpaceOnUse" x="3" y="4" width="24" height="24">
<rect x="3" y="4" width="24" height="24" fill="#D9D9D9"/>
</mask>
<g mask="url(#mask0_1024_4286)">
<path d="M13.2 24.5C12.7887 24.5 12.3964 24.4122 12.0232 24.2365C11.6501 24.0608 11.3303 23.8099 11.064 23.4838L4.977 16.05L5.55 15.5213C5.79616 15.2814 6.08783 15.1478 6.425 15.1203C6.76216 15.0928 7.06733 15.1719 7.3405 15.3578L10.5 17.4308V7.2405C10.5 7.028 10.5719 6.84983 10.7157 6.706C10.8596 6.56233 11.0377 6.4905 11.2502 6.4905C11.4629 6.4905 11.641 6.56233 11.7845 6.706C11.9282 6.84983 12 7.028 12 7.2405V20.2903L8.50375 17.9943L12.2407 22.5343C12.3674 22.6794 12.5128 22.7933 12.677 22.876C12.841 22.9587 13.0153 23 13.2 23H19.75C20.3768 23 20.9086 22.7818 21.3452 22.3453C21.7817 21.9086 22 21.3768 22 20.75V13.75C22 13.5375 22.0719 13.3593 22.2157 13.2155C22.3596 13.0718 22.5377 13 22.7502 13C22.9629 13 23.141 13.0718 23.2845 13.2155C23.4282 13.3593 23.5 13.5375 23.5 13.75V20.75C23.5 21.7858 23.134 22.6698 22.402 23.402C21.6698 24.134 20.7858 24.5 19.75 24.5H13.2ZM14.3365 16.5V10.75C14.3365 10.5375 14.4084 10.3593 14.5522 10.2155C14.6961 10.0718 14.8743 10 15.087 10C15.2995 10 15.4776 10.0718 15.6212 10.2155C15.7647 10.3593 15.8365 10.5375 15.8365 10.75V16.5H14.3365ZM18.173 16.5V11.8463C18.173 11.6338 18.2449 11.4556 18.3887 11.3118C18.5326 11.1681 18.7108 11.0963 18.9235 11.0963C19.136 11.0963 19.3141 11.1681 19.4577 11.3118C19.6012 11.4556 19.673 11.6338 19.673 11.8463V16.5H18.173Z" fill="white"/>
</g>
</g>
<defs>
<clipPath id="clip0_1024_4286">
<rect width="32" height="32" fill="white"/>
</clipPath>
</defs>
</svg>
