<svg width="32" height="32" viewBox="0 0 32 32" fill="none" xmlns="http://www.w3.org/2000/svg">
<g clip-path="url(#clip0_1024_4205)">
<rect width="32" height="32" rx="10" fill="#415FB3"/>
<mask id="mask0_1024_4205" style="mask-type:alpha" maskUnits="userSpaceOnUse" x="4" y="4" width="24" height="24">
<rect x="4" y="4" width="24" height="24" fill="#D9D9D9"/>
</mask>
<g mask="url(#mask0_1024_4205)">
<path d="M6.5 18.6635V13.3365C6.5 12.8315 6.67983 12.3992 7.0395 12.0395C7.39917 11.6798 7.8315 11.5 8.3365 11.5C8.84167 11.5 9.27408 11.6798 9.63375 12.0395C9.99325 12.3992 10.173 12.8315 10.173 13.3365V18.6635C10.173 19.1685 9.99325 19.6008 9.63375 19.9605C9.27408 20.3202 8.84167 20.5 8.3365 20.5C7.8315 20.5 7.39917 20.3202 7.0395 19.9605C6.67983 19.6008 6.5 19.1685 6.5 18.6635ZM13.173 22.5C12.668 22.5 12.2405 22.325 11.8905 21.975C11.5405 21.625 11.3655 21.1974 11.3655 20.6923V11.3077C11.3655 10.8026 11.5405 10.375 11.8905 10.025C12.2405 9.675 12.668 9.5 13.173 9.5H18.827C19.332 9.5 19.7595 9.675 20.1095 10.025C20.4595 10.375 20.6345 10.8026 20.6345 11.3077V20.6923C20.6345 21.1974 20.4595 21.625 20.1095 21.975C19.7595 22.325 19.332 22.5 18.827 22.5H13.173ZM21.827 18.6635V13.3365C21.827 12.8315 22.0068 12.3992 22.3663 12.0395C22.7259 11.6798 23.1583 11.5 23.6635 11.5C24.1685 11.5 24.6008 11.6798 24.9605 12.0395C25.3202 12.3992 25.5 12.8315 25.5 13.3365V18.6635C25.5 19.1685 25.3202 19.6008 24.9605 19.9605C24.6008 20.3202 24.1685 20.5 23.6635 20.5C23.1583 20.5 22.7259 20.3202 22.3663 19.9605C22.0068 19.6008 21.827 19.1685 21.827 18.6635ZM13.173 21H18.827C18.9167 21 18.9903 20.9712 19.048 20.9135C19.1058 20.8558 19.1348 20.7821 19.1348 20.6923V11.3077C19.1348 11.2179 19.1058 11.1442 19.048 11.0865C18.9903 11.0288 18.9167 11 18.827 11H13.173C13.0833 11 13.0097 11.0288 12.952 11.0865C12.8942 11.1442 12.8652 11.2179 12.8652 11.3077V20.6923C12.8652 20.7821 12.8942 20.8558 12.952 20.9135C13.0097 20.9712 13.0833 21 13.173 21Z" fill="white"/>
</g>
</g>
<defs>
<clipPath id="clip0_1024_4205">
<rect width="32" height="32" fill="white"/>
</clipPath>
</defs>
</svg>
