<svg width="32" height="32" viewBox="0 0 32 32" fill="none" xmlns="http://www.w3.org/2000/svg">
<g clip-path="url(#clip0_1024_4223)">
<rect width="32" height="32" rx="10" fill="#415FB3"/>
<mask id="mask0_1024_4223" style="mask-type:alpha" maskUnits="userSpaceOnUse" x="4" y="5" width="24" height="24">
<rect x="4" y="5" width="24" height="24" fill="#D9D9D9"/>
</mask>
<g mask="url(#mask0_1024_4223)">
<path d="M16 25.6057L6.298 13.9615L9.15375 8.25H22.8463L25.702 13.9615L16 25.6057ZM13.221 13.25H18.779L17.0288 9.75H14.9713L13.221 13.25ZM15.25 22.3673V14.75H8.921L15.25 22.3673ZM16.75 22.3673L23.079 14.75H16.75V22.3673ZM20.4463 13.25H23.654L21.9038 9.75H18.696L20.4463 13.25ZM8.346 13.25H11.5538L13.304 9.75H10.0963L8.346 13.25Z" fill="white"/>
</g>
</g>
<defs>
<clipPath id="clip0_1024_4223">
<rect width="32" height="32" fill="white"/>
</clipPath>
</defs>
</svg>
