<svg width="32" height="32" viewBox="0 0 32 32" fill="none" xmlns="http://www.w3.org/2000/svg">
<g clip-path="url(#clip0_1024_4244)">
<rect width="32" height="32" rx="10" fill="#415FB3"/>
<mask id="mask0_1024_4244" style="mask-type:alpha" maskUnits="userSpaceOnUse" x="4" y="4" width="24" height="24">
<rect x="4" y="4" width="24" height="24" fill="#D9D9D9"/>
</mask>
<g mask="url(#mask0_1024_4244)">
<path d="M14.5 26.6152V24.5H9.30775C8.80258 24.5 8.375 24.325 8.025 23.975C7.675 23.625 7.5 23.1974 7.5 22.6923V9.30775C7.5 8.80258 7.675 8.375 8.025 8.025C8.375 7.675 8.80258 7.5 9.30775 7.5H14.5V5.38475H16V26.6152H14.5ZM9 22H14.5V15.4038L9 22ZM18 24.5V16L23 22V9.30775C23 9.23075 22.9679 9.16025 22.9038 9.09625C22.8398 9.03208 22.7692 9 22.6923 9H18V7.5H22.6923C23.1974 7.5 23.625 7.675 23.975 8.025C24.325 8.375 24.5 8.80258 24.5 9.30775V22.6923C24.5 23.1974 24.325 23.625 23.975 23.975C23.625 24.325 23.1974 24.5 22.6923 24.5H18Z" fill="white"/>
</g>
</g>
<defs>
<clipPath id="clip0_1024_4244">
<rect width="32" height="32" fill="white"/>
</clipPath>
</defs>
</svg>
