<svg width="32" height="32" viewBox="0 0 32 32" fill="none" xmlns="http://www.w3.org/2000/svg">
<g clip-path="url(#clip0_1024_4114)">
<rect width="32" height="32" rx="10" fill="#415FB3"/>
<mask id="mask0_1024_4114" style="mask-type:alpha" maskUnits="userSpaceOnUse" x="4" y="4" width="24" height="24">
<rect x="4" y="4" width="24" height="24" fill="#D9D9D9"/>
</mask>
<g mask="url(#mask0_1024_4114)">
<path d="M16 16.5577L8 11.4423V21.6923C8 21.7821 8.02883 21.8558 8.0865 21.9135C8.14417 21.9712 8.21792 22 8.30775 22H17.25V23.5H8.30775C7.80258 23.5 7.375 23.325 7.025 22.975C6.675 22.625 6.5 22.1974 6.5 21.6923V10.3077C6.5 9.80258 6.675 9.375 7.025 9.025C7.375 8.675 7.80258 8.5 8.30775 8.5H23.6923C24.1974 8.5 24.625 8.675 24.975 9.025C25.325 9.375 25.5 9.80258 25.5 10.3077V17.25H24V11.4423L16 16.5577ZM16 15L23.8463 10H8.15375L16 15ZM22.8078 26.3943L21.7635 25.35L23.579 23.5H19.0578V22H23.5885L21.7385 20.15L22.8078 19.1058L26.452 22.75L22.8078 26.3943ZM8 11.4423V22.8365V17.25V17.373V10V11.4423Z" fill="white"/>
</g>
</g>
<defs>
<clipPath id="clip0_1024_4114">
<rect width="32" height="32" fill="white"/>
</clipPath>
</defs>
</svg>
