<svg width="32" height="32" viewBox="0 0 32 32" fill="none" xmlns="http://www.w3.org/2000/svg">
<g clip-path="url(#clip0_1024_4238)">
<rect width="32" height="32" rx="10" fill="#415FB3"/>
<path opacity="0.15" d="M0 16H32V22C32 27.5228 27.5228 32 22 32H10C4.47715 32 0 27.5228 0 22V16Z" fill="white"/>
<mask id="mask0_1024_4238" style="mask-type:alpha" maskUnits="userSpaceOnUse" x="4" y="4" width="24" height="24">
<rect x="4" y="4" width="24" height="24" fill="#D9D9D9"/>
</mask>
<g mask="url(#mask0_1024_4238)">
<path d="M16.0017 25.5C14.6877 25.5 13.4527 25.2507 12.2965 24.752C11.1403 24.2533 10.1347 23.5766 9.2795 22.7218C8.42433 21.8669 7.74725 20.8617 7.24825 19.706C6.74942 18.5503 6.5 17.3156 6.5 16.0017C6.5 14.6877 6.74933 13.4527 7.248 12.2965C7.74667 11.1403 8.42342 10.1347 9.27825 9.2795C10.1331 8.42433 11.1383 7.74725 12.294 7.24825C13.4497 6.74942 14.6844 6.5 15.9983 6.5C17.3123 6.5 18.5473 6.74933 19.7035 7.248C20.8597 7.74667 21.8653 8.42342 22.7205 9.27825C23.5757 10.1331 24.2528 11.1383 24.7518 12.294C25.2506 13.4497 25.5 14.6844 25.5 15.9983C25.5 17.3123 25.2507 18.5473 24.752 19.7035C24.2533 20.8597 23.5766 21.8653 22.7218 22.7205C21.8669 23.5757 20.8617 24.2528 19.706 24.7518C18.5503 25.2506 17.3156 25.5 16.0017 25.5ZM16 24C18.2333 24 20.125 23.225 21.675 21.675C23.225 20.125 24 18.2333 24 16C24 13.7667 23.225 11.875 21.675 10.325C20.125 8.775 18.2333 8 16 8C13.7667 8 11.875 8.775 10.325 10.325C8.775 11.875 8 13.7667 8 16C8 18.2333 8.775 20.125 10.325 21.675C11.875 23.225 13.7667 24 16 24ZM13.25 20.75H16.939C17.4463 20.75 17.875 20.575 18.225 20.225C18.575 19.875 18.75 19.4474 18.75 18.9423V17.3652C18.75 16.9513 18.6276 16.625 18.3828 16.3865C18.1378 16.148 17.8435 16.0192 17.5 16C17.8435 15.9808 18.1378 15.852 18.3828 15.6135C18.6276 15.375 18.75 15.0487 18.75 14.6348V13.0578C18.75 12.5526 18.575 12.125 18.225 11.775C17.875 11.425 17.4463 11.25 16.939 11.25H13.25V12.75H16.9423C17.0321 12.75 17.1058 12.7788 17.1635 12.8365C17.2212 12.8942 17.25 12.9679 17.25 13.0578V14.9423C17.25 15.0321 17.2212 15.1058 17.1635 15.1635C17.1058 15.2212 17.0321 15.25 16.9423 15.25H15.0577V16.75H16.9423C17.0321 16.75 17.1058 16.7788 17.1635 16.8365C17.2212 16.8942 17.25 16.9679 17.25 17.0577V18.9423C17.25 19.0321 17.2212 19.1058 17.1635 19.1635C17.1058 19.2212 17.0321 19.25 16.9423 19.25H13.25V20.75Z" fill="white"/>
</g>
</g>
<defs>
<clipPath id="clip0_1024_4238">
<rect width="32" height="32" fill="white"/>
</clipPath>
</defs>
</svg>
