<svg width="32" height="32" viewBox="0 0 32 32" fill="none" xmlns="http://www.w3.org/2000/svg">
<g clip-path="url(#clip0_1024_4278)">
<rect width="32" height="32" rx="10" fill="#415FB3"/>
<rect x="8" y="22" width="16" height="1" fill="white"/>
<rect x="11" y="25" width="10" height="1" fill="white"/>
<mask id="mask0_1024_4278" style="mask-type:alpha" maskUnits="userSpaceOnUse" x="5" y="2" width="22" height="22">
<rect x="5" y="2" width="22" height="22" fill="#D9D9D9"/>
</mask>
<g mask="url(#mask0_1024_4278)">
<path d="M12.4568 19.0113H9.45981C8.83708 19.0113 8.31122 18.7968 7.88222 18.3678C7.45322 17.9388 7.23872 17.4129 7.23872 16.7902V9.20981C7.23872 8.58709 7.45322 8.06123 7.88222 7.63223C8.31122 7.20323 8.83708 6.98873 9.45981 6.98873H13.7613V8.92794H9.45981C9.37761 8.92794 9.31009 8.95437 9.25722 9.00723C9.20436 9.06009 9.17793 9.12762 9.17793 9.20981V11.5721H12.4568C13.0796 11.5721 13.6054 11.7866 14.0344 12.2156C14.4634 12.6446 14.6779 13.1704 14.6779 13.7931V16.7902C14.6779 17.4129 14.4634 17.9388 14.0344 18.3678C13.6054 18.7968 13.0796 19.0113 12.4568 19.0113ZM9.17793 13.5113V16.7902C9.17793 16.8724 9.20436 16.9399 9.25722 16.9928C9.31009 17.0456 9.37761 17.0721 9.45981 17.0721H12.4568C12.539 17.0721 12.6066 17.0456 12.6594 16.9928C12.7123 16.9399 12.7387 16.8724 12.7387 16.7902V13.7931C12.7387 13.711 12.7123 13.6434 12.6594 13.5906C12.6066 13.5377 12.539 13.5113 12.4568 13.5113H9.17793ZM18.6265 17.0721H22.5402C22.6224 17.0721 22.6899 17.0456 22.7428 16.9928C22.7956 16.9399 22.8221 16.8724 22.8221 16.7902V9.20981C22.8221 9.12762 22.7956 9.06009 22.7428 9.00723C22.6899 8.95437 22.6224 8.92794 22.5402 8.92794H18.6265C18.5443 8.92794 18.4768 8.95437 18.4239 9.00723C18.371 9.06009 18.3446 9.12762 18.3446 9.20981V16.7902C18.3446 16.8724 18.371 16.9399 18.4239 16.9928C18.4768 17.0456 18.5443 17.0721 18.6265 17.0721ZM18.6265 19.0113C18.0038 19.0113 17.4779 18.7968 17.0489 18.3678C16.6199 17.9388 16.4054 17.4129 16.4054 16.7902V9.20981C16.4054 8.58709 16.6199 8.06123 17.0489 7.63223C17.4779 7.20323 18.0038 6.98873 18.6265 6.98873H22.5402C23.1629 6.98873 23.6888 7.20323 24.1178 7.63223C24.5468 8.06123 24.7613 8.58709 24.7613 9.20981V16.7902C24.7613 17.4129 24.5468 17.9388 24.1178 18.3678C23.6888 18.7968 23.1629 19.0113 22.5402 19.0113H18.6265Z" fill="white"/>
</g>
</g>
<defs>
<clipPath id="clip0_1024_4278">
<rect width="32" height="32" fill="white"/>
</clipPath>
</defs>
</svg>
