<svg width="32" height="32" viewBox="0 0 32 32" fill="none" xmlns="http://www.w3.org/2000/svg">
<g clip-path="url(#clip0_1024_4290)">
<rect width="32" height="32" rx="10" fill="#415FB3"/>
<mask id="mask0_1024_4290" style="mask-type:alpha" maskUnits="userSpaceOnUse" x="4" y="4" width="24" height="24">
<rect x="4" y="4" width="24" height="24" fill="#D9D9D9"/>
</mask>
<g mask="url(#mask0_1024_4290)">
<path d="M15.1923 9.1155V7.5H16.8077V9.1155H15.1923ZM15.1923 24.5V22.8845H16.8077V24.5H15.1923ZM11.3463 9.1155V7.5H12.9615V9.1155H11.3463ZM11.3463 24.5V22.8845H12.9615V24.5H11.3463ZM7.5 9.1155V7.5H9.1155V9.1155H7.5ZM7.5 24.5V22.8845H9.1155V24.5H7.5ZM19 24.5V23H21V9H19V7.5H24.5V9H22.5V23H24.5V24.5H19ZM11.1442 19.6442L7.5 16L11.1442 12.3557L12.198 13.4L10.373 15.25H17.6152V16.75H10.373L12.198 18.6L11.1442 19.6442Z" fill="white"/>
</g>
</g>
<defs>
<clipPath id="clip0_1024_4290">
<rect width="32" height="32" fill="white"/>
</clipPath>
</defs>
</svg>
