<svg width="32" height="32" viewBox="0 0 32 32" fill="none" xmlns="http://www.w3.org/2000/svg">
<g clip-path="url(#clip0_1024_4295)">
<rect width="32" height="32" rx="10" fill="#415FB3"/>
<mask id="mask0_1024_4295" style="mask-type:alpha" maskUnits="userSpaceOnUse" x="3" y="3" width="26" height="26">
<rect x="3" y="3" width="26" height="26" fill="#D9D9D9"/>
</mask>
<g mask="url(#mask0_1024_4295)">
<path d="M15.2874 12.8751H24.0792C23.5986 11.6154 22.8486 10.5178 21.8291 9.58233C20.8097 8.64687 19.6431 8.00554 18.3292 7.65833L15.2874 12.8751ZM12.9209 15.0418L17.3376 7.44166C17.139 7.40555 16.9161 7.37847 16.6687 7.36041C16.4215 7.34236 16.1986 7.33333 16 7.33333C14.8083 7.33333 13.6979 7.55902 12.6688 8.01041C11.6396 8.4618 10.7278 9.06666 9.93334 9.82499L12.9209 15.0418ZM7.60417 18.1667H13.6335L9.25842 10.5874C8.65284 11.3486 8.18059 12.1831 7.84169 13.0907C7.50279 13.9984 7.33334 14.9681 7.33334 16C7.33334 16.3792 7.35591 16.7448 7.40104 17.0969C7.44618 17.449 7.51389 17.8055 7.60417 18.1667ZM13.6917 24.3417L16.7001 19.1249H7.92077C8.40141 20.3846 9.15487 21.4822 10.1811 22.4177C11.2076 23.3531 12.3778 23.9945 13.6917 24.3417ZM16 24.6667C17.1917 24.6667 18.3021 24.441 19.3313 23.9896C20.3604 23.5382 21.2722 22.9333 22.0667 22.175L19.0791 16.9582L14.6832 24.5375C14.8818 24.5806 15.0968 24.6129 15.3281 24.6344C15.5594 24.6559 15.7833 24.6667 16 24.6667ZM22.7416 21.4126C23.3194 20.6723 23.7847 19.8379 24.1375 18.9093C24.4903 17.9809 24.6667 17.0111 24.6667 16C24.6667 15.6208 24.6441 15.2552 24.599 14.9031C24.5538 14.551 24.4861 14.1944 24.3958 13.8333H18.3665L22.7416 21.4126ZM16 26.2917C14.589 26.2917 13.2574 26.0212 12.0052 25.4802C10.7531 24.9393 9.66106 24.2028 8.72921 23.2708C7.79718 22.3389 7.0607 21.2469 6.51975 19.9948C5.97881 18.7426 5.70834 17.411 5.70834 16C5.70834 14.5778 5.97881 13.2434 6.51975 11.9968C7.0607 10.7503 7.79718 9.66105 8.72921 8.7292C9.66106 7.79717 10.7531 7.06069 12.0052 6.51975C13.2574 5.9788 14.589 5.70833 16 5.70833C17.4222 5.70833 18.7566 5.9788 20.0032 6.51975C21.2497 7.06069 22.3389 7.79717 23.2708 8.7292C24.2028 9.66105 24.9393 10.7503 25.4803 11.9968C26.0212 13.2434 26.2917 14.5778 26.2917 16C26.2917 17.411 26.0212 18.7426 25.4803 19.9948C24.9393 21.2469 24.2028 22.3389 23.2708 23.2708C22.3389 24.2028 21.2497 24.9393 20.0032 25.4802C18.7566 26.0212 17.4222 26.2917 16 26.2917Z" fill="white"/>
</g>
</g>
<defs>
<clipPath id="clip0_1024_4295">
<rect width="32" height="32" fill="white"/>
</clipPath>
</defs>
</svg>
