<svg width="32" height="32" viewBox="0 0 32 32" fill="none" xmlns="http://www.w3.org/2000/svg">
<g clip-path="url(#clip0_1024_4095)">
<rect width="32" height="32" rx="10" fill="#415FB3"/>
<mask id="mask0_1024_4095" style="mask-type:alpha" maskUnits="userSpaceOnUse" x="4" y="4" width="24" height="24">
<rect x="4" y="4" width="24" height="24" fill="#D9D9D9"/>
</mask>
<g mask="url(#mask0_1024_4095)">
<path d="M16.0018 15.8652C16.4993 15.8652 16.9246 15.6881 17.2778 15.3338C17.6311 14.9794 17.8078 14.5535 17.8078 14.056C17.8078 13.5585 17.6306 13.1331 17.2763 12.7798C16.9219 12.4266 16.4959 12.25 15.9983 12.25C15.5008 12.25 15.0754 12.4272 14.7223 12.7815C14.3689 13.1358 14.1923 13.5618 14.1923 14.0595C14.1923 14.557 14.3694 14.9823 14.7238 15.3355C15.0781 15.6887 15.5041 15.8652 16.0018 15.8652ZM16 23.5135C17.9563 21.7622 19.4534 20.0823 20.4913 18.474C21.5291 16.8657 22.048 15.457 22.048 14.248C22.048 12.425 21.4688 10.9263 20.3105 9.752C19.1522 8.57767 17.7153 7.9905 16 7.9905C14.2847 7.9905 12.8478 8.57767 11.6895 9.752C10.5312 10.9263 9.952 12.425 9.952 14.248C9.952 15.457 10.4709 16.8657 11.5088 18.474C12.5466 20.0823 14.0437 21.7622 16 23.5135ZM16 25.5095C13.4833 23.3288 11.5962 21.2994 10.3385 19.4212C9.08084 17.5429 8.452 15.8185 8.452 14.248C8.452 11.9403 9.19842 10.0721 10.6913 8.64325C12.1843 7.21442 13.9538 6.5 16 6.5C18.0462 6.5 19.8158 7.21442 21.3088 8.64325C22.8016 10.0721 23.548 11.9403 23.548 14.248C23.548 15.8185 22.9192 17.5429 21.6615 19.4212C20.4038 21.2994 18.5167 23.3288 16 25.5095Z" fill="white"/>
</g>
</g>
<defs>
<clipPath id="clip0_1024_4095">
<rect width="32" height="32" fill="white"/>
</clipPath>
</defs>
</svg>
