<svg width="32" height="32" viewBox="0 0 32 32" fill="none" xmlns="http://www.w3.org/2000/svg">
<g clip-path="url(#clip0_1024_4337)">
<rect width="32" height="32" rx="10" fill="#415FB3"/>
<mask id="mask0_1024_4337" style="mask-type:alpha" maskUnits="userSpaceOnUse" x="4" y="5" width="24" height="24">
<rect x="4" y="5" width="24" height="24" fill="#D9D9D9"/>
</mask>
<g mask="url(#mask0_1024_4337)">
<path d="M16.9423 15.5577V9H8.30775C8.23075 9 8.16025 9.03208 8.09625 9.09625C8.03208 9.16025 8 9.23075 8 9.30775V22.3848L9.4 21H23.6923C23.7693 21 23.8398 20.9679 23.9038 20.9038C23.9679 20.8398 24 20.7692 24 20.6923V9.30775C24 9.23075 23.9679 9.16025 23.9038 9.09625C23.8398 9.03208 23.7693 9 23.6923 9H21.4423V15.5577L19.1923 14.2115L16.9423 15.5577ZM6.5 26.0385V9.30775C6.5 8.80258 6.675 8.375 7.025 8.025C7.375 7.675 7.80258 7.5 8.30775 7.5H23.6923C24.1974 7.5 24.625 7.675 24.975 8.025C25.325 8.375 25.5 8.80258 25.5 9.30775V20.6923C25.5 21.1974 25.325 21.625 24.975 21.975C24.625 22.325 24.1974 22.5 23.6923 22.5H10.0385L6.5 26.0385Z" fill="white"/>
</g>
</g>
<defs>
<clipPath id="clip0_1024_4337">
<rect width="32" height="32" fill="white"/>
</clipPath>
</defs>
</svg>
