<svg width="32" height="32" viewBox="0 0 32 32" fill="none" xmlns="http://www.w3.org/2000/svg">
<g clip-path="url(#clip0_1024_4371)">
<rect width="32" height="32" rx="10" fill="#415FB3"/>
<mask id="mask0_1024_4371" style="mask-type:alpha" maskUnits="userSpaceOnUse" x="4" y="4" width="24" height="24">
<rect x="4" y="4" width="24" height="24" fill="#D9D9D9"/>
</mask>
<g mask="url(#mask0_1024_4371)">
<path d="M19.8077 24.5C19.3987 24.5 19.0465 24.3523 18.751 24.0568C18.4555 23.7613 18.3077 23.409 18.3077 23V18.8077C18.3077 18.3987 18.4555 18.0465 18.751 17.751C19.0465 17.4555 19.3987 17.3077 19.8077 17.3077H24C24.409 17.3077 24.7613 17.4555 25.0568 17.751C25.3523 18.0465 25.5 18.3987 25.5 18.8077V23C25.5 23.409 25.3523 23.7613 25.0568 24.0568C24.7613 24.3523 24.409 24.5 24 24.5H19.8077ZM19.8077 23H24V18.8077H19.8077V23ZM6.5 21.6538V20.1538H15.1155V21.6538H6.5ZM19.8077 14.6923C19.3987 14.6923 19.0465 14.5445 18.751 14.249C18.4555 13.9535 18.3077 13.6013 18.3077 13.1923V9C18.3077 8.591 18.4555 8.23875 18.751 7.94325C19.0465 7.64775 19.3987 7.5 19.8077 7.5H24C24.409 7.5 24.7613 7.64775 25.0568 7.94325C25.3523 8.23875 25.5 8.591 25.5 9V13.1923C25.5 13.6013 25.3523 13.9535 25.0568 14.249C24.7613 14.5445 24.409 14.6923 24 14.6923H19.8077ZM19.8077 13.1923H24V9H19.8077V13.1923ZM6.5 11.8462V10.3462H15.1155V11.8462H6.5Z" fill="white"/>
</g>
</g>
<defs>
<clipPath id="clip0_1024_4371">
<rect width="32" height="32" fill="white"/>
</clipPath>
</defs>
</svg>
