<svg width="32" height="32" viewBox="0 0 32 32" fill="none" xmlns="http://www.w3.org/2000/svg">
<g clip-path="url(#clip0_1024_4416)">
<rect width="32" height="32" rx="10" fill="#415FB3"/>
<mask id="mask0_1024_4416" style="mask-type:alpha" maskUnits="userSpaceOnUse" x="4" y="4" width="24" height="24">
<rect x="4" y="4" width="24" height="24" fill="#D9D9D9"/>
</mask>
<g mask="url(#mask0_1024_4416)">
<path d="M9 22.5C8.30133 22.5 7.71 22.258 7.226 21.774C6.742 21.29 6.5 20.6987 6.5 20C6.5 19.3013 6.742 18.71 7.226 18.226C7.71 17.742 8.30133 17.5 9 17.5H23C23.6987 17.5 24.29 17.742 24.774 18.226C25.258 18.71 25.5 19.3013 25.5 20C25.5 20.6987 25.258 21.29 24.774 21.774C24.29 22.258 23.6987 22.5 23 22.5H9ZM18 21H23C23.2833 21 23.5208 20.9042 23.7125 20.7125C23.9042 20.5208 24 20.2833 24 20C24 19.7167 23.9042 19.4792 23.7125 19.2875C23.5208 19.0958 23.2833 19 23 19H18V21Z" fill="white"/>
<path d="M23 10C23.6987 10 24.29 10.242 24.774 10.726C25.258 11.21 25.5 11.8013 25.5 12.5C25.5 13.1987 25.258 13.79 24.774 14.274C24.29 14.758 23.6987 15 23 15L9 15C8.30133 15 7.71 14.758 7.226 14.274C6.742 13.79 6.5 13.1987 6.5 12.5C6.5 11.8013 6.742 11.21 7.226 10.726C7.71 10.242 8.30133 10 9 10L23 10ZM14 11.5L9 11.5C8.71667 11.5 8.47917 11.5958 8.2875 11.7875C8.09583 11.9792 8 12.2167 8 12.5C8 12.7833 8.09583 13.0208 8.2875 13.2125C8.47917 13.4042 8.71667 13.5 9 13.5L14 13.5L14 11.5Z" fill="white"/>
</g>
</g>
<defs>
<clipPath id="clip0_1024_4416">
<rect width="32" height="32" fill="white"/>
</clipPath>
</defs>
</svg>
