<svg width="32" height="32" viewBox="0 0 32 32" fill="none" xmlns="http://www.w3.org/2000/svg">
<g clip-path="url(#clip0_1024_4433)">
<rect width="32" height="32" rx="10" fill="#415FB3"/>
<mask id="mask0_1024_4433" style="mask-type:alpha" maskUnits="userSpaceOnUse" x="4" y="4" width="24" height="24">
<rect x="4" y="4" width="24" height="24" fill="#D9D9D9"/>
</mask>
<g mask="url(#mask0_1024_4433)">
<path d="M7.5 17V9.30775C7.5 8.80258 7.675 8.375 8.025 8.025C8.375 7.675 8.80258 7.5 9.30775 7.5H15V17H7.5ZM17 7.5H22.6923C23.1974 7.5 23.625 7.675 23.975 8.025C24.325 8.375 24.5 8.80367 24.5 9.311V13H17V7.5ZM17 24.5V15H24.5V22.6923C24.5 23.1974 24.325 23.625 23.975 23.975C23.625 24.325 23.1974 24.5 22.6923 24.5H17ZM7.5 19H15V24.5H9.30775C8.80258 24.5 8.375 24.325 8.025 23.975C7.675 23.625 7.5 23.1963 7.5 22.689V19ZM9 15.5H13.5V9H9.30775C9.21792 9 9.14417 9.02883 9.0865 9.0865C9.02883 9.14417 9 9.21792 9 9.30775V15.5ZM18.5 11.5H23V9.30775C23 9.21792 22.9712 9.14417 22.9135 9.0865C22.8558 9.02883 22.7821 9 22.6923 9H18.5V11.5ZM18.5 16.5V23H22.6923C22.7821 23 22.8558 22.9712 22.9135 22.9135C22.9712 22.8558 23 22.7821 23 22.6923V16.5H18.5ZM9 20.5V22.6923C9 22.7821 9.02883 22.8558 9.0865 22.9135C9.14417 22.9712 9.21792 23 9.30775 23H13.5V20.5H9Z" fill="white"/>
</g>
</g>
<defs>
<clipPath id="clip0_1024_4433">
<rect width="32" height="32" fill="white"/>
</clipPath>
</defs>
</svg>
