<svg width="32" height="32" viewBox="0 0 32 32" fill="none" xmlns="http://www.w3.org/2000/svg">
<g clip-path="url(#clip0_1024_4424)">
<rect width="32" height="32" rx="10" fill="#415FB3"/>
<mask id="mask0_1024_4424" style="mask-type:alpha" maskUnits="userSpaceOnUse" x="4" y="4" width="24" height="24">
<rect x="4" y="4" width="24" height="24" fill="#D9D9D9"/>
</mask>
<g mask="url(#mask0_1024_4424)">
<path d="M16.1865 20.9213L24.4942 12.6135C24.5391 12.5687 24.5615 12.5142 24.5615 12.45C24.5615 12.3858 24.5391 12.3313 24.4942 12.2865L23.5212 11.3135C23.4762 11.2687 23.4217 11.2462 23.3577 11.2462C23.2936 11.2462 23.2391 11.2687 23.1942 11.3135L14.8865 19.6213L16.1865 20.9213ZM9.9115 22.7307C8.42433 22.6474 7.30766 22.3167 6.5615 21.7385C5.81533 21.1603 5.44225 20.3423 5.44225 19.2845C5.44225 18.2718 5.86725 17.4504 6.71725 16.8202C7.56725 16.1901 8.74866 15.8083 10.2615 15.675C10.9885 15.6122 11.5337 15.4807 11.8972 15.2807C12.2606 15.0807 12.4422 14.8038 12.4422 14.45C12.4422 13.959 12.1964 13.5843 11.7047 13.326C11.2131 13.0677 10.407 12.8821 9.2865 12.7693L9.423 11.2788C10.9602 11.4249 12.0977 11.7563 12.8355 12.273C13.5733 12.7897 13.9422 13.5153 13.9422 14.45C13.9422 15.2435 13.6375 15.8727 13.028 16.3375C12.4183 16.8022 11.5333 17.0813 10.373 17.175C9.2295 17.2712 8.37183 17.4942 7.8 17.8442C7.22816 18.1943 6.94225 18.6743 6.94225 19.2845C6.94225 19.9063 7.18041 20.3689 7.65675 20.6722C8.13308 20.9754 8.90516 21.1616 9.973 21.2308L9.9115 22.7307ZM16.421 22.8095L12.998 19.3865L22.3365 10.0577C22.6313 9.76292 22.9759 9.61708 23.3702 9.62025C23.7644 9.62342 24.1089 9.76925 24.4037 10.0577L25.75 11.4038C26.0448 11.6988 26.1922 12.0449 26.1922 12.4423C26.1922 12.8398 26.0448 13.1859 25.75 13.4807L16.421 22.8095ZM13.0807 23.5C12.8551 23.5538 12.6564 23.4948 12.4847 23.323C12.3129 23.1512 12.2539 22.9525 12.3077 22.727L12.998 19.3865L16.421 22.8095L13.0807 23.5Z" fill="white"/>
</g>
</g>
<defs>
<clipPath id="clip0_1024_4424">
<rect width="32" height="32" fill="white"/>
</clipPath>
</defs>
</svg>
