<svg width="32" height="32" viewBox="0 0 32 32" fill="none" xmlns="http://www.w3.org/2000/svg">
<g clip-path="url(#clip0_1024_4442)">
<rect width="32" height="32" rx="10" fill="#415FB3"/>
<mask id="mask0_1024_4442" style="mask-type:alpha" maskUnits="userSpaceOnUse" x="4" y="4" width="24" height="24">
<rect x="4" y="4" width="24" height="24" fill="#D9D9D9"/>
</mask>
<g mask="url(#mask0_1024_4442)">
<path d="M10.0013 26.75C9.23758 26.75 8.58817 26.4827 8.053 25.9482C7.51767 25.4137 7.25 24.7647 7.25 24.0012C7.25 23.2376 7.51742 22.5882 8.05225 22.053C8.58692 21.5177 9.23625 21.25 10.0002 21.25C10.2143 21.25 10.4244 21.2766 10.6308 21.3298C10.8373 21.3831 11.0322 21.4546 11.2155 21.5443L13.198 19.077C12.7827 18.6243 12.4962 18.1179 12.3385 17.5577C12.1808 16.9974 12.1487 16.4339 12.2422 15.8673L9.3615 14.9135C9.11017 15.3173 8.77975 15.641 8.37025 15.8845C7.96075 16.1282 7.504 16.25 7 16.25C6.23617 16.25 5.58683 15.9827 5.052 15.4482C4.51733 14.9137 4.25 14.2648 4.25 13.5013C4.25 12.7376 4.51725 12.0882 5.05175 11.553C5.58625 11.0177 6.23525 10.75 6.99875 10.75C7.76242 10.75 8.41183 11.0173 8.947 11.552C9.48233 12.0868 9.75 12.7362 9.75 13.5C9.75 13.559 9.74842 13.6083 9.74525 13.648C9.74192 13.6878 9.74025 13.7276 9.74025 13.7673L12.6115 14.7655C12.8872 14.2552 13.2658 13.8173 13.7473 13.452C14.2286 13.0867 14.7808 12.8521 15.4038 12.7483V9.67875C14.7603 9.52758 14.2404 9.20225 13.8442 8.70275C13.4481 8.20342 13.25 7.6345 13.25 6.996C13.25 6.23583 13.5173 5.58817 14.0518 5.053C14.5863 4.51767 15.2353 4.25 15.9988 4.25C16.7624 4.25 17.4118 4.51733 17.947 5.052C18.4823 5.58683 18.75 6.23617 18.75 7C18.75 7.63583 18.5493 8.20342 18.148 8.70275C17.7468 9.20225 17.2296 9.52758 16.5963 9.67875V12.7483C17.2193 12.8521 17.7698 13.0867 18.248 13.452C18.7262 13.8173 19.1063 14.2552 19.3885 14.7655L22.2598 13.7673C22.2533 13.7211 22.25 13.6797 22.25 13.6432V13.5C22.25 12.7362 22.5173 12.0868 23.0518 11.552C23.5863 11.0173 24.2353 10.75 24.9988 10.75C25.7624 10.75 26.4118 11.0173 26.947 11.5518C27.4823 12.0863 27.75 12.7353 27.75 13.4988C27.75 14.2624 27.4827 14.9118 26.948 15.447C26.4132 15.9823 25.7638 16.25 25 16.25C24.498 16.25 24.0392 16.1282 23.6235 15.8845C23.2078 15.641 22.8795 15.3173 22.6385 14.9135L19.7578 15.8673C19.8513 16.4339 19.8192 16.9948 19.6615 17.55C19.5038 18.1052 19.2173 18.6109 18.802 19.0673L20.7845 21.5193C20.9678 21.4359 21.1628 21.3703 21.3693 21.3223C21.5756 21.2741 21.7857 21.25 21.9998 21.25C22.7638 21.25 23.4131 21.5173 23.9478 22.0518C24.4826 22.5863 24.75 23.2353 24.75 23.9988C24.75 24.7624 24.4827 25.4118 23.9482 25.947C23.4137 26.4823 22.7647 26.75 22.0012 26.75C21.2376 26.75 20.5882 26.4827 20.053 25.948C19.5177 25.4132 19.25 24.7638 19.25 24C19.25 23.6847 19.301 23.3812 19.403 23.0895C19.5048 22.7978 19.6571 22.5302 19.8598 22.2865L17.877 19.8C17.309 20.1385 16.6823 20.3078 15.997 20.3078C15.3118 20.3078 14.6821 20.1385 14.1077 19.8L12.1402 22.2865C12.3364 22.5302 12.4871 22.7978 12.5922 23.0895C12.6974 23.3812 12.75 23.6847 12.75 24C12.75 24.7638 12.4827 25.4132 11.9482 25.948C11.4137 26.4827 10.7648 26.75 10.0013 26.75ZM7 14.75C7.3475 14.75 7.64267 14.6285 7.8855 14.3855C8.1285 14.1427 8.25 13.8475 8.25 13.5C8.25 13.1525 8.1285 12.8573 7.8855 12.6145C7.64267 12.3715 7.3475 12.25 7 12.25C6.6525 12.25 6.35733 12.3715 6.1145 12.6145C5.8715 12.8573 5.75 13.1525 5.75 13.5C5.75 13.8475 5.8715 14.1427 6.1145 14.3855C6.35733 14.6285 6.6525 14.75 7 14.75ZM10 25.25C10.3475 25.25 10.6427 25.1285 10.8855 24.8855C11.1285 24.6427 11.25 24.3475 11.25 24C11.25 23.6525 11.1285 23.3573 10.8855 23.1145C10.6427 22.8715 10.3475 22.75 10 22.75C9.6525 22.75 9.35733 22.8715 9.1145 23.1145C8.8715 23.3573 8.75 23.6525 8.75 24C8.75 24.3475 8.8715 24.6427 9.1145 24.8855C9.35733 25.1285 9.6525 25.25 10 25.25ZM16 8.25C16.3475 8.25 16.6427 8.1285 16.8855 7.8855C17.1285 7.64267 17.25 7.3475 17.25 7C17.25 6.6525 17.1285 6.35733 16.8855 6.1145C16.6427 5.8715 16.3475 5.75 16 5.75C15.6525 5.75 15.3573 5.8715 15.1145 6.1145C14.8715 6.35733 14.75 6.6525 14.75 7C14.75 7.3475 14.8715 7.64267 15.1145 7.8855C15.3573 8.1285 15.6525 8.25 16 8.25ZM16 18.8077C16.6423 18.8077 17.1875 18.5837 17.6355 18.1355C18.0837 17.6875 18.3077 17.1423 18.3077 16.5C18.3077 15.8577 18.0837 15.3125 17.6355 14.8645C17.1875 14.4163 16.6423 14.1923 16 14.1923C15.3577 14.1923 14.8125 14.4163 14.3645 14.8645C13.9163 15.3125 13.6923 15.8577 13.6923 16.5C13.6923 17.1423 13.9163 17.6875 14.3645 18.1355C14.8125 18.5837 15.3577 18.8077 16 18.8077ZM22 25.25C22.3475 25.25 22.6427 25.1285 22.8855 24.8855C23.1285 24.6427 23.25 24.3475 23.25 24C23.25 23.6525 23.1285 23.3573 22.8855 23.1145C22.6427 22.8715 22.3475 22.75 22 22.75C21.6525 22.75 21.3573 22.8715 21.1145 23.1145C20.8715 23.3573 20.75 23.6525 20.75 24C20.75 24.3475 20.8715 24.6427 21.1145 24.8855C21.3573 25.1285 21.6525 25.25 22 25.25ZM25 14.75C25.3475 14.75 25.6427 14.6285 25.8855 14.3855C26.1285 14.1427 26.25 13.8475 26.25 13.5C26.25 13.1525 26.1285 12.8573 25.8855 12.6145C25.6427 12.3715 25.3475 12.25 25 12.25C24.6525 12.25 24.3573 12.3715 24.1145 12.6145C23.8715 12.8573 23.75 13.1525 23.75 13.5C23.75 13.8475 23.8715 14.1427 24.1145 14.3855C24.3573 14.6285 24.6525 14.75 25 14.75Z" fill="white"/>
</g>
</g>
<defs>
<clipPath id="clip0_1024_4442">
<rect width="32" height="32" fill="white"/>
</clipPath>
</defs>
</svg>
