<svg width="32" height="32" viewBox="0 0 32 32" fill="none" xmlns="http://www.w3.org/2000/svg">
<g clip-path="url(#clip0_1024_4127)">
<rect width="32" height="32" rx="10" fill="#415FB3"/>
<mask id="mask0_1024_4127" style="mask-type:alpha" maskUnits="userSpaceOnUse" x="4" y="3" width="24" height="24">
<rect x="4" y="3" width="24" height="24" fill="#D9D9D9"/>
</mask>
<g mask="url(#mask0_1024_4127)">
<path d="M5.79825 22.3077V20.0845C5.79825 19.5692 5.93125 19.1092 6.19725 18.7047C6.46325 18.3002 6.8185 17.9856 7.263 17.7607C8.21333 17.2959 9.16892 16.9375 10.1297 16.6855C11.0907 16.4337 12.1468 16.3077 13.298 16.3077C14.4493 16.3077 15.5054 16.4337 16.4662 16.6855C17.4272 16.9375 18.3829 17.2959 19.3333 17.7607C19.7778 17.9856 20.133 18.3002 20.399 18.7047C20.665 19.1092 20.798 19.5692 20.798 20.0845V22.3077H5.79825ZM22.798 22.3077V19.9615C22.798 19.3052 22.6373 18.6796 22.316 18.0847C21.9945 17.4901 21.5385 16.9798 20.948 16.554C21.6185 16.654 22.2551 16.8087 22.8577 17.0182C23.4603 17.2279 24.0352 17.4757 24.5828 17.7615C25.0994 18.0372 25.4984 18.3621 25.7798 18.7362C26.0611 19.1102 26.2017 19.5187 26.2017 19.9615V22.3077H22.798ZM13.298 14.6922C12.3355 14.6922 11.5116 14.3496 10.8262 13.6642C10.1409 12.9787 9.79825 12.1547 9.79825 11.1922C9.79825 10.2297 10.1409 9.40583 10.8262 8.7205C11.5116 8.035 12.3355 7.69225 13.298 7.69225C14.2605 7.69225 15.0845 8.035 15.77 8.7205C16.4553 9.40583 16.798 10.2297 16.798 11.1922C16.798 12.1547 16.4553 12.9787 15.77 13.6642C15.0845 14.3496 14.2605 14.6922 13.298 14.6922ZM21.9325 11.1922C21.9325 12.1547 21.5898 12.9787 20.9045 13.6642C20.2192 14.3496 19.3953 14.6922 18.4327 14.6922C18.3199 14.6922 18.1763 14.6794 18.002 14.6537C17.8275 14.6281 17.6839 14.5999 17.5712 14.5692C17.9656 14.0951 18.2687 13.5691 18.4805 12.9912C18.6922 12.4134 18.798 11.8134 18.798 11.1912C18.798 10.5689 18.69 9.97116 18.474 9.39799C18.258 8.825 17.9571 8.2975 17.5712 7.8155C17.7147 7.76416 17.8583 7.73083 18.002 7.7155C18.1455 7.7 18.2891 7.69225 18.4327 7.69225C19.3953 7.69225 20.2192 8.035 20.9045 8.7205C21.5898 9.40583 21.9325 10.2297 21.9325 11.1922ZM7.298 20.8077H19.298V20.0845C19.298 19.8757 19.2458 19.6898 19.1413 19.527C19.0369 19.3642 18.8713 19.2218 18.6442 19.1C17.8212 18.6757 16.9738 18.3542 16.102 18.1355C15.2302 17.917 14.2955 17.8077 13.298 17.8077C12.3007 17.8077 11.3661 17.917 10.4942 18.1355C9.62242 18.3542 8.775 18.6757 7.952 19.1C7.725 19.2218 7.55925 19.3642 7.45475 19.527C7.35025 19.6898 7.298 19.8757 7.298 20.0845V20.8077ZM13.298 13.1922C13.848 13.1922 14.3188 12.9964 14.7105 12.6047C15.1022 12.2131 15.298 11.7422 15.298 11.1922C15.298 10.6422 15.1022 10.1714 14.7105 9.77975C14.3188 9.38808 13.848 9.19225 13.298 9.19225C12.748 9.19225 12.2772 9.38808 11.8855 9.77975C11.4938 10.1714 11.298 10.6422 11.298 11.1922C11.298 11.7422 11.4938 12.2131 11.8855 12.6047C12.2772 12.9964 12.748 13.1922 13.298 13.1922Z" fill="white"/>
</g>
</g>
<defs>
<clipPath id="clip0_1024_4127">
<rect width="32" height="32" fill="white"/>
</clipPath>
</defs>
</svg>
