<svg width="32" height="32" viewBox="0 0 32 32" fill="none" xmlns="http://www.w3.org/2000/svg">
<g clip-path="url(#clip0_1024_4119)">
<rect width="32" height="32" rx="10" fill="#415FB3"/>
<mask id="mask0_1024_4119" style="mask-type:alpha" maskUnits="userSpaceOnUse" x="4" y="3" width="24" height="24">
<rect x="4" y="3" width="24" height="24" fill="#D9D9D9"/>
</mask>
<g mask="url(#mask0_1024_4119)">
<path d="M16 14.6922C15.0375 14.6922 14.2136 14.3496 13.5283 13.6642C12.8428 12.9787 12.5 12.1547 12.5 11.1922C12.5 10.2297 12.8428 9.40583 13.5283 8.7205C14.2136 8.035 15.0375 7.69225 16 7.69225C16.9625 7.69225 17.7864 8.035 18.4718 8.7205C19.1573 9.40583 19.5 10.2297 19.5 11.1922C19.5 12.1547 19.1573 12.9787 18.4718 13.6642C17.7864 14.3496 16.9625 14.6922 16 14.6922ZM8.5 22.3077V20.0845C8.5 19.5948 8.633 19.1413 8.899 18.724C9.165 18.3067 9.5205 17.9858 9.9655 17.7615C10.9538 17.277 11.9509 16.9136 12.9567 16.6712C13.9626 16.4289 14.977 16.3077 16 16.3077C17.023 16.3077 18.0374 16.4289 19.0433 16.6712C20.0491 16.9136 21.0462 17.277 22.0345 17.7615C22.4795 17.9858 22.835 18.3067 23.101 18.724C23.367 19.1413 23.5 19.5948 23.5 20.0845V22.3077H8.5ZM10 20.8077H22V20.0845C22 19.882 21.9413 19.6945 21.824 19.522C21.7067 19.3497 21.5474 19.209 21.3462 19.1C20.4846 18.6757 19.6061 18.3542 18.7107 18.1355C17.8152 17.917 16.9117 17.8077 16 17.8077C15.0883 17.8077 14.1848 17.917 13.2893 18.1355C12.3939 18.3542 11.5154 18.6757 10.6537 19.1C10.4526 19.209 10.2933 19.3497 10.176 19.522C10.0587 19.6945 10 19.882 10 20.0845V20.8077ZM16 13.1922C16.55 13.1922 17.0208 12.9964 17.4125 12.6047C17.8042 12.2131 18 11.7422 18 11.1922C18 10.6422 17.8042 10.1714 17.4125 9.77975C17.0208 9.38808 16.55 9.19225 16 9.19225C15.45 9.19225 14.9792 9.38808 14.5875 9.77975C14.1958 10.1714 14 10.6422 14 11.1922C14 11.7422 14.1958 12.2131 14.5875 12.6047C14.9792 12.9964 15.45 13.1922 16 13.1922Z" fill="white"/>
</g>
</g>
<defs>
<clipPath id="clip0_1024_4119">
<rect width="32" height="32" fill="white"/>
</clipPath>
</defs>
</svg>
