<svg width="32" height="32" viewBox="0 0 32 32" fill="none" xmlns="http://www.w3.org/2000/svg">
<g clip-path="url(#clip0_1024_4136)">
<rect width="32" height="32" rx="10" fill="#415FB3"/>
<mask id="mask0_1024_4136" style="mask-type:alpha" maskUnits="userSpaceOnUse" x="4" y="5" width="24" height="24">
<rect x="4" y="5" width="24" height="24" fill="#D9D9D9"/>
</mask>
<g mask="url(#mask0_1024_4136)">
<path d="M10.25 18.875H17.75V17.375H10.25V18.875ZM10.25 15.875H21.75V14.375H10.25V15.875ZM10.25 12.875H21.75V11.375H10.25V12.875ZM16 26.5L13.5173 22.75H8.30775C7.81058 22.75 7.385 22.573 7.031 22.219C6.677 21.865 6.5 21.4394 6.5 20.9423V9.30775C6.5 8.81058 6.677 8.385 7.031 8.031C7.385 7.677 7.81058 7.5 8.30775 7.5H23.6923C24.1894 7.5 24.615 7.677 24.969 8.031C25.323 8.385 25.5 8.81058 25.5 9.30775V20.9423C25.5 21.4394 25.323 21.865 24.969 22.219C24.615 22.573 24.1894 22.75 23.6923 22.75H18.4827L16 26.5ZM16 23.7943L17.677 21.25H23.6923C23.7821 21.25 23.8558 21.2212 23.9135 21.1635C23.9712 21.1058 24 21.0321 24 20.9423V9.30775C24 9.21792 23.9712 9.14417 23.9135 9.0865C23.8558 9.02883 23.7821 9 23.6923 9H8.30775C8.21792 9 8.14417 9.02883 8.0865 9.0865C8.02883 9.14417 8 9.21792 8 9.30775V20.9423C8 21.0321 8.02883 21.1058 8.0865 21.1635C8.14417 21.2212 8.21792 21.25 8.30775 21.25H14.323L16 23.7943Z" fill="white"/>
</g>
</g>
<defs>
<clipPath id="clip0_1024_4136">
<rect width="32" height="32" fill="white"/>
</clipPath>
</defs>
</svg>
