<svg width="32" height="32" viewBox="0 0 32 32" fill="none" xmlns="http://www.w3.org/2000/svg">
<g clip-path="url(#clip0_1024_4171)">
<rect width="32" height="32" rx="10" fill="#415FB3"/>
<mask id="mask0_1024_4171" style="mask-type:alpha" maskUnits="userSpaceOnUse" x="3" y="3" width="26" height="26">
<rect x="3" y="3" width="26" height="26" fill="#D9D9D9"/>
</mask>
<g mask="url(#mask0_1024_4171)">
<path d="M7.97304 22.4561C7.26327 21.566 6.70843 20.5733 6.30849 19.478C5.90838 18.383 5.70833 17.2236 5.70833 16C5.70833 13.3251 6.59061 11.0177 8.35518 9.07804C10.1198 7.13851 12.3069 6.03333 14.9167 5.7625V7.3875C12.7569 7.64714 10.953 8.58946 9.50514 10.2145C8.05727 11.8395 7.33333 13.768 7.33333 16C7.33333 17.0111 7.4868 17.9635 7.79374 18.8573C8.10069 19.751 8.54305 20.5681 9.12083 21.3083L7.97304 22.4561ZM16 26.2917C14.7583 26.2917 13.5837 26.0889 12.4762 25.6834C11.3685 25.2778 10.3695 24.7112 9.47914 23.9834L10.6207 22.825C11.361 23.4028 12.1853 23.8542 13.0937 24.1792C14.0021 24.5042 14.9708 24.6667 16 24.6667C17.0292 24.6667 17.9979 24.5024 18.9063 24.174C19.8147 23.8456 20.6424 23.3925 21.3896 22.8147L22.5311 23.9728C21.641 24.7006 20.6421 25.269 19.5344 25.678C18.4267 26.0871 17.2485 26.2917 16 26.2917ZM24.0375 22.4458L22.8792 21.2875C23.4501 20.5472 23.8907 19.7319 24.2011 18.8416C24.5115 17.9514 24.6667 17.0042 24.6667 16C24.6667 13.768 23.9444 11.843 22.5 10.225C21.0555 8.60688 19.2569 7.66447 17.1042 7.39779V5.77306C19.7069 6.05075 21.8888 7.15593 23.65 9.0886C25.4111 11.0213 26.2917 13.3251 26.2917 16C26.2917 17.2236 26.0934 18.3813 25.6969 19.4729C25.3004 20.5645 24.7473 21.5555 24.0375 22.4458ZM13.5625 20.375V11.625L20.375 16L13.5625 20.375Z" fill="white"/>
</g>
</g>
<defs>
<clipPath id="clip0_1024_4171">
<rect width="32" height="32" fill="white"/>
</clipPath>
</defs>
</svg>
