<svg width="32" height="32" viewBox="0 0 32 32" fill="none" xmlns="http://www.w3.org/2000/svg">
<g clip-path="url(#clip0_1024_4455)">
<rect width="32" height="32" rx="10" fill="#415FB3"/>
<path fill-rule="evenodd" clip-rule="evenodd" d="M24.844 10C23.7416 10 23.0237 10.3832 22.3828 11.6695L19.46 17.5537V12.3263C19.46 10.7663 18.7678 10 17.4858 10C16.2039 10 15.6655 10.4653 15.0246 11.7789L12.2556 17.5537V12.3811C12.2556 10.7116 11.6147 10 10.0507 10H6.87159C5.6666 10 5 10.6021 5 11.6968C5 12.7916 5.64096 13.4484 6.82032 13.4484H8.12787V20.0442C8.12787 21.9053 9.30723 23 10.9994 23C12.6915 23 13.4606 22.2884 14.3067 20.6189L16.1526 16.9242V20.0442C16.1526 21.8779 17.2807 23 18.9985 23C20.7163 23 21.3572 22.3705 22.3315 20.6189L26.5874 12.9558C27.5104 11.2863 26.8694 10 24.8184 10C24.8184 10 24.8184 10 24.844 10Z" fill="white"/>
</g>
<defs>
<clipPath id="clip0_1024_4455">
<rect width="32" height="32" fill="white"/>
</clipPath>
</defs>
</svg>
